<mxfile host="app.diagrams.net" modified="2023-09-23T03:07:52.752Z" agent="Mozilla/5.0 (Macintosh; Intel Mac OS X 10_15_7) AppleWebKit/537.36 (KHTML, like Gecko) Chrome/116.0.0.0 Safari/537.36" version="21.8.0" etag="heYBN94MOJp1FFbAENv8" type="github">
  <diagram name="第 1 页" id="z-GHPNetECgqHe0ttnCC">
    <mxGraphModel>
      <root>
        <mxCell id="0" />
        <mxCell id="1" parent="0" />
      </root>
    </mxGraphModel>
  </diagram>
</mxfile>
